<mxfile host="Electron" agent="Mozilla/5.0 (Windows NT 10.0; Win64; x64) AppleWebKit/537.36 (KHTML, like Gecko) draw.io/24.7.17 Chrome/128.0.6613.36 Electron/32.0.1 Safari/537.36" version="24.7.17">
  <diagram name="Pagina-1" id="bZYnMJSUBA37ufiwWpZw">
    <mxGraphModel dx="568" dy="329" grid="1" gridSize="10" guides="1" tooltips="1" connect="1" arrows="1" fold="1" page="1" pageScale="1" pageWidth="827" pageHeight="1169" math="1" shadow="0">
      <root>
        <mxCell id="0" />
        <mxCell id="1" parent="0" />
        <mxCell id="zFXvl5YObDLv6A4P0H8s-5" style="edgeStyle=orthogonalEdgeStyle;rounded=0;orthogonalLoop=1;jettySize=auto;html=1;entryX=0;entryY=0.5;entryDx=0;entryDy=0;" edge="1" parent="1" source="zFXvl5YObDLv6A4P0H8s-1" target="zFXvl5YObDLv6A4P0H8s-2">
          <mxGeometry relative="1" as="geometry" />
        </mxCell>
        <mxCell id="zFXvl5YObDLv6A4P0H8s-9" value="\(e_1\)" style="edgeLabel;html=1;align=center;verticalAlign=middle;resizable=0;points=[];" vertex="1" connectable="0" parent="zFXvl5YObDLv6A4P0H8s-5">
          <mxGeometry x="-0.1417" relative="1" as="geometry">
            <mxPoint as="offset" />
          </mxGeometry>
        </mxCell>
        <mxCell id="zFXvl5YObDLv6A4P0H8s-1" value="\(x_1\)" style="ellipse;whiteSpace=wrap;html=1;aspect=fixed;fontSize=17;" vertex="1" parent="1">
          <mxGeometry x="320" y="320" width="40" height="40" as="geometry" />
        </mxCell>
        <mxCell id="zFXvl5YObDLv6A4P0H8s-6" style="edgeStyle=orthogonalEdgeStyle;rounded=0;orthogonalLoop=1;jettySize=auto;html=1;entryX=0;entryY=0.5;entryDx=0;entryDy=0;" edge="1" parent="1" source="zFXvl5YObDLv6A4P0H8s-2" target="zFXvl5YObDLv6A4P0H8s-3">
          <mxGeometry relative="1" as="geometry" />
        </mxCell>
        <mxCell id="zFXvl5YObDLv6A4P0H8s-10" value="\(e_2\)" style="edgeLabel;html=1;align=center;verticalAlign=middle;resizable=0;points=[];" vertex="1" connectable="0" parent="zFXvl5YObDLv6A4P0H8s-6">
          <mxGeometry x="-0.1833" y="1" relative="1" as="geometry">
            <mxPoint as="offset" />
          </mxGeometry>
        </mxCell>
        <mxCell id="zFXvl5YObDLv6A4P0H8s-13" style="edgeStyle=orthogonalEdgeStyle;rounded=1;orthogonalLoop=1;jettySize=auto;html=1;entryX=0.5;entryY=0;entryDx=0;entryDy=0;fillColor=#f8cecc;strokeColor=#FF0000;curved=0;dashed=1;" edge="1" parent="1" source="zFXvl5YObDLv6A4P0H8s-2" target="zFXvl5YObDLv6A4P0H8s-4">
          <mxGeometry relative="1" as="geometry">
            <Array as="points">
              <mxPoint x="460" y="280" />
              <mxPoint x="700" y="280" />
            </Array>
          </mxGeometry>
        </mxCell>
        <mxCell id="zFXvl5YObDLv6A4P0H8s-14" value="Inammissibile" style="edgeLabel;html=1;align=center;verticalAlign=middle;resizable=0;points=[];fontColor=#FF0000;" vertex="1" connectable="0" parent="zFXvl5YObDLv6A4P0H8s-13">
          <mxGeometry x="0.0792" y="-1" relative="1" as="geometry">
            <mxPoint as="offset" />
          </mxGeometry>
        </mxCell>
        <mxCell id="zFXvl5YObDLv6A4P0H8s-2" value="\(x_2\)" style="ellipse;whiteSpace=wrap;html=1;aspect=fixed;fontSize=17;" vertex="1" parent="1">
          <mxGeometry x="440" y="320" width="40" height="40" as="geometry" />
        </mxCell>
        <mxCell id="zFXvl5YObDLv6A4P0H8s-7" style="edgeStyle=orthogonalEdgeStyle;rounded=0;orthogonalLoop=1;jettySize=auto;html=1;entryX=0;entryY=0.5;entryDx=0;entryDy=0;" edge="1" parent="1" source="zFXvl5YObDLv6A4P0H8s-3" target="zFXvl5YObDLv6A4P0H8s-4">
          <mxGeometry relative="1" as="geometry" />
        </mxCell>
        <mxCell id="zFXvl5YObDLv6A4P0H8s-11" value="\(e_3\)" style="edgeLabel;html=1;align=center;verticalAlign=middle;resizable=0;points=[];" vertex="1" connectable="0" parent="zFXvl5YObDLv6A4P0H8s-7">
          <mxGeometry x="-0.1917" y="1" relative="1" as="geometry">
            <mxPoint as="offset" />
          </mxGeometry>
        </mxCell>
        <mxCell id="zFXvl5YObDLv6A4P0H8s-3" value="\(x_3\)" style="ellipse;whiteSpace=wrap;html=1;aspect=fixed;fontSize=17;" vertex="1" parent="1">
          <mxGeometry x="560" y="320" width="40" height="40" as="geometry" />
        </mxCell>
        <mxCell id="zFXvl5YObDLv6A4P0H8s-8" style="edgeStyle=orthogonalEdgeStyle;rounded=1;orthogonalLoop=1;jettySize=auto;html=1;entryX=0.5;entryY=1;entryDx=0;entryDy=0;curved=0;" edge="1" parent="1" source="zFXvl5YObDLv6A4P0H8s-4" target="zFXvl5YObDLv6A4P0H8s-1">
          <mxGeometry relative="1" as="geometry">
            <Array as="points">
              <mxPoint x="700" y="380" />
              <mxPoint x="340" y="380" />
            </Array>
          </mxGeometry>
        </mxCell>
        <mxCell id="zFXvl5YObDLv6A4P0H8s-12" value="\(e_4\)" style="edgeLabel;html=1;align=center;verticalAlign=middle;resizable=0;points=[];" vertex="1" connectable="0" parent="zFXvl5YObDLv6A4P0H8s-8">
          <mxGeometry x="0.005" y="1" relative="1" as="geometry">
            <mxPoint as="offset" />
          </mxGeometry>
        </mxCell>
        <mxCell id="zFXvl5YObDLv6A4P0H8s-4" value="\(x_4\)" style="ellipse;whiteSpace=wrap;html=1;aspect=fixed;fontSize=17;" vertex="1" parent="1">
          <mxGeometry x="680" y="320" width="40" height="40" as="geometry" />
        </mxCell>
      </root>
    </mxGraphModel>
  </diagram>
</mxfile>
